<svg xmlns="http://www.w3.org/2000/svg" viewBox="0 0 24 24"><path d="M3 9v10c0 1.1.895 2 2 2h14c1.105 0 2-.9 2-2V9H3z" fill="#2980b9" class="fill-2980b9"></path><path d="M5 3a2 2 0 0 0-2 2v13a2 2 0 0 0 2 2h14a2 2 0 0 0 2-2V6l-3-3H5z" fill="#589cc9" class="fill-3498db"></path><path d="M6 3v4a2 2 0 0 0 2 2h8a2 2 0 0 0 2-2V3H6z" fill="#2980b9" class="fill-2980b9"></path><path d="M8 13c-1.105 0-2 .9-2 2v5h12v-5c0-1.1-.895-2-2-2H8z" fill="#ecf0f1" class="fill-ecf0f1"></path><path fill="#666666" d="M6 20h12v1H6z" class="fill-bdc3c7"></path><path d="M7 3v3c0 1.1.895 2 2 2h6c1.105 0 2-.9 2-2V3H7z" fill="#ecf0f1" class="fill-ecf0f1"></path><path d="M8 4v2a1 1 0 0 0 1 1h2a1 1 0 0 0 1-1V4H8z" fill="#616161" class="fill-95a5a6"></path><g fill="#666666" class="fill-bdc3c7"><path d="M8 15h8v1H8zM8 17h8v1H8zM8 3h4v1H8z"></path></g></svg>