<svg width="256" height="256" xmlns="http://www.w3.org/2000/svg" preserveAspectRatio="xMidYMid meet">
 <defs>
  <filter height="200%" width="200%" y="-50%" x="-50%" id="svg_19_blur">
   <feGaussianBlur stdDeviation="0" in="SourceGraphic"/>
  </filter>
 </defs>
 <g>
  <title>background</title>
  <rect fill="none" id="canvas_background" height="402" width="582" y="-1" x="-1"/>
 </g>
 <g>
  <title>Layer 1</title>
  <path id="svg_20" d="m82.04272,189.82011l17.81507,-8.63873l17.39947,-14.37347l11.34747,-10.59098l10.96923,-14.75172l15.12997,-18.15596l8.32148,-11.72573l9.45623,-10.96923l13.23873,-12.86047l45.76815,-57.11563l6.80849,-9.83448l-8.32148,1.51299l-16.64297,8.32149l-27.23394,24.5862l-29.12519,27.99044l-19.66896,10.96923l-24.96445,22.3167l-15.88647,10.59098l-18.15596,19.29071l-9.07798,10.21273l-3.026,11.34747l-0.37825,11.72573l10.21273,7.94323" stroke-width="NaN" stroke="#ffffff" fill="#75623e"/>
  <path transform="rotate(-5 147.35014343261722,107.31262207031246) " filter="url(#svg_19_blur)" d="m71.45174,186.03763c1.513,0 1.89775,0.02514 3.40424,-0.37825c2.65999,-0.71228 6.44865,-0.76204 10.21273,-1.13475c1.91932,-0.19005 4.13934,-0.43413 6.05199,-1.13475c1.12314,-0.41143 3.29284,-2.40044 4.16074,-3.02599c0.68614,-0.49454 2.34772,-1.44214 3.02599,-2.2695c0.86464,-1.05469 1.4821,-2.31192 3.026,-3.40425c1.11332,-0.78769 2.24228,-2.12236 3.02599,-3.02599c0.55417,-0.63896 1.81366,-1.59629 3.02599,-2.64775c1.42875,-1.23915 2.37664,-2.1058 3.026,-2.64773c1.45201,-1.21182 2.95142,-3.07279 4.16074,-4.91725c1.78408,-2.7211 1.89125,-3.40424 2.26949,-4.16074c0.7565,-1.513 3.15596,-4.04109 4.539,-5.67374c2.10319,-2.48274 2.79322,-4.2929 4.16074,-6.43023c1.30533,-2.04012 4.01723,-4.66671 6.05199,-6.80849c1.30263,-1.37114 4.42637,-4.14963 6.05199,-7.56499c0.67025,-1.40819 1.76452,-3.86548 3.78248,-6.80848c2.13904,-3.11959 4.09442,-6.07519 4.91725,-8.32148c0.70063,-1.91266 1.13475,-3.78251 1.89124,-4.91725c0.7565,-1.13475 1.32879,-1.35942 1.89125,-2.26949c0.62884,-1.0175 2.1651,-2.73199 3.40425,-4.16075c1.05144,-1.21232 1.92081,-2.60935 3.40424,-3.78248c2.3172,-1.83249 3.95782,-3.67851 6.43023,-5.2955c2.12355,-1.38882 4.10092,-2.71271 4.91724,-3.40424c2.48274,-2.10319 4.82703,-3.0428 6.80849,-4.91723c2.7478,-2.59939 5.30157,-5.60564 7.56498,-7.94324c1.89736,-1.95954 3.40087,-3.83273 5.67374,-6.80849c1.85106,-2.42349 3.61462,-5.8156 4.91724,-7.18673c2.03476,-2.14178 4.87242,-3.18646 7.94323,-5.29549c2.64568,-1.81705 6.43024,-6.05199 9.83449,-9.45623c2.64774,-2.64774 4.7686,-4.60546 5.67374,-6.43024c0.98007,-1.97584 2.19,-3.81216 2.64773,-4.91724c0.64734,-1.56282 1.39664,-2.42492 2.64775,-4.16074c0.49454,-0.68614 1.13475,-1.89125 1.13475,-2.64775c0,-0.37824 0,-1.13474 0,-1.51299c0,-0.7565 0.26746,-1.62379 0,-1.89125c-0.26745,-0.26746 -0.79936,-0.06239 -3.026,1.513c-3.0878,2.18466 -8.15677,7.01508 -14.75171,12.10397c-6.6491,5.1307 -12.65332,9.24982 -15.88647,12.10398c-0.80205,0.70803 -1.6834,2.81814 -2.64775,3.78249c-1.9287,1.9287 -3.78249,3.40424 -5.67374,4.91724c-1.89123,1.51299 -3.14612,3.25964 -4.53898,4.53899c-2.62806,2.41388 -19.8437,10.38795 -23.8297,13.99522c-2.37973,2.15364 -12.86048,9.45624 -0.7565,0.7565c12.10397,-8.69974 0,7.18674 -3.026,10.59098l-2.26949,2.64774l-1.13475,1.51301l-0.37825,0.75649" id="svg_19" stroke-opacity="null" stroke-width="null" stroke="null" fill="none"/>
  <path stroke="#000000" id="svg_2" d="m235.400004,10.299996c-11.2,4.9 -27.1,15.7 -49.900001,34.100001c-26.1,20.9 -64.800001,55.500001 -100.700002,89.800001c-21.8,20.9 -24.7,25.2 -25.6,38.200001c-0.5,8.3 0.7,13.2 4.5,17.7c8.3,9.8 27.3,9.8 39.800001,0c6.8,-5.5 74.800001,-81.800001 102.100002,-114.600002c22.6,-27.3 33.3,-42.100001 39.000001,-54.000001c1.9,-3.8 3.4,-7.9 3.4,-9c0,-4.9 -4.5,-5.7 -12.6,-2.2zm-3.4,14.4c0,2.7 -28.2,36.200001 -86.000001,102.300002c-53.700001,61.300001 -50.700001,58.500001 -61.600001,58.500001c-7.4,0 -11.1,-2.2 -13.3,-7.9c-1.9,-5 -0.1,-13.2 4.2,-18.8c9.2,-12 110.700002,-101.000002 145.600002,-127.700002c8.7,-6.7 11.1,-8 11.1,-6.4z"/>
  <path stroke-width="5" stroke="#000000" fill="#edd83b" id="svg_3" d="m42.212998,188.265251c-5.2,1.9 -6.7,3.3 -9.3,9.1c-1.9,4 -2.4,6.7 -2.4,13.5c0,7.7 -0.3,9 -3.4,14.5c-2.9,5.2 -4.1,6.4 -9.9,9.5c-3.7,1.9 -6.7,4 -6.7,4.7c0,0.6 2.1,2.1 4.7,3.4c15.3,7.4 45.900001,-4.1 54.600001,-20.6c5.9,-11.1 0,-26.7 -12.5,-32.9c-5.8,-2.9 -9.5,-3.2 -15.1,-1.2z"/>
 </g>
</svg>