<svg width="256" height="256" xmlns="http://www.w3.org/2000/svg" preserveAspectRatio="xMidYMid meet">

 <g>
  <title>background</title>
  <rect fill="none" id="canvas_background" height="402" width="582" y="-1" x="-1"/>
 </g>
 <g>
  <title>Layer 1</title>
  <path id="svg_5" d="m166.392017,116.818094l-36.653482,27.293806l-75.649292,-20.047062l-3.404218,8.699669l15.508105,6.051943l24.964266,9.834408l17.399337,9.834408l3.404218,4.917204l-3.404218,15.886351l-6.808436,20.425309l-1.134739,9.077915l-5.673697,25.720759l4.917204,1.891232l31.01621,-74.514552c0.341821,0.318187 27.575567,-19.728876 27.953813,-19.728876c0.378246,0 10.590901,-20.047063 10.249079,-20.365249c0.341822,0.318186 1.854808,-3.086033 1.512986,-3.404218" stroke-opacity="null" stroke-width="1.5" stroke="#000" fill="#005fbf"/>
  <path id="svg_4" d="m175.469932,118.33108c0,0 55.602231,-52.198013 55.260407,-52.516197c0.341824,0.318184 3.367796,9.774346 3.025972,9.456161c0.341824,0.318184 -1.549408,13.935057 -1.891232,13.616872c0.341824,0.318185 -4.57538,9.774346 -4.917204,9.456161c0.341824,0.318185 -5.331873,9.3961 -5.673697,9.077915c0.341824,0.318185 -7.979599,13.178565 -8.321422,12.86038c0.341823,0.318186 -15.166282,18.474016 -15.508105,18.15583c0.341823,0.318186 -21.974719,22.256482 -22.316541,21.938295c0.341822,0.318187 -9.870833,10.909088 -10.212654,10.590901c0.341822,0.318187 -9.11434,2.587666 -9.456161,2.269479c0.341822,0.318187 0.341822,-11.407453 0,-11.72564" stroke-opacity="null" stroke-width="1.5" stroke="#000" fill="#bf005f"/>
  <path id="svg_3" d="m155.801116,22.256477l-58.591776,57.553526l6.43019,12.482133l67.706116,21.181802l22.694787,-17.777584l37.446399,-33.285688l7.943176,-12.86038l-77.162277,-27.611991l-6.466615,0.318182z" stroke-width="1.5" stroke="#000" fill="#bf005f"/>
  <path id="svg_2" d="m152.300002,17.899996c-4.4,2.8 -66.300001,64.100001 -87.900001,87.100001c-9.8,10.5 -19.6,21.7 -21.7,24.8c-6.6,9.9 -31,60.500001 -34.100001,70.800001c-0.8,2.7 2.7,6.3 10.7,11c22,12.9 72.100001,30.3 80.800001,28.1c2.9,-0.7 77.100001,-72.700001 98.400001,-95.300001c14.3,-15.3 15.3,-16.7 22.7,-30.5c12.8,-24 25.8,-53.600001 25.8,-58.600001c0,-6.5 -15.3,-15.8 -45.600001,-27.7c-27.2,-10.7 -42.700001,-13.8 -49.100001,-9.7zm26.8,11.7c12.6,4 43.200001,15.6 49.200001,18.6c4.3,2.1 6.1,5.6 4.8,9.1c-0.5,1.3 -8.8,9.2 -18.4,17.5c-9.6,8.3 -21.3,18.8 -26,23.2c-10.2,9.6 -13.8,11.4 -20.2,10c-13.4,-3 -57.100001,-19.3 -61.900001,-23.1c-1.8,-1.4 -2.6,-3 -2.6,-5.1c0,-2.6 1.9,-5.1 12.3,-15.5c13,-13.3 29.2,-28 37.700001,-34.400001c6.7,-5 10,-5.1 25.1,-0.3zm51.900001,43.900001c0,5.4 -19.1,45.200001 -25,52.000001c-2.3,2.7 -12.2,13.5 -21.8,23.8c-19.7,21.2 -23.8,24.3 -26.1,19.9c-1.2,-2.3 4.9,-21.1 11.1,-34.200001c3.9,-8.1 5.2,-9.6 29.2,-33.900001c27,-27.2 32.6,-32 32.6,-27.6zm-64.000001,47.500001c-2.7,5 -12.3,15 -23.9,25c-7,6 -13.3,12.1 -14,13.7c-0.8,1.5 -3,7.7 -5.1,13.8c-8.1,23.8 -21.3,56.900001 -23.6,59.500001c-4,4.3 -2.5,-2.6 6.7,-30.5c5.4,-16.5 10.4,-32.8 11,-36.200001c1.5,-7.8 0.1,-10.4 -6.8,-12.7c-2.6,-0.9 -16.6,-6.4 -31,-12.3c-20.7,-8.4 -26.3,-11.1 -26.3,-12.5c0,-2.1 0.8,-2.2 4.7,-0.7c11.8,4.6 62.200001,19.9 65.400001,19.9c5.5,0 7.1,-1 25.9,-15.9c9.1,-7.2 16.8,-13.1 17.3,-13.1c0.4,0 0.3,0.9 -0.3,2z"/>
 </g>
</svg>