<svg width="256" height="256" xmlns="http://www.w3.org/2000/svg" preserveAspectRatio="xMidYMid meet">

 <g>
  <title>background</title>
  <rect fill="none" id="canvas_background" height="402" width="582" y="-1" x="-1"/>
 </g>
 <g>
  <title>Layer 1</title>
  <path id="svg_4" d="m124.028379,30.198833l-10.93174,10.273878l1.891248,32.907718l8.699741,18.534232l16.264734,15.886484l39.337961,2.269498l30.63822,-0.37825l9.83449,-4.917245l5.295495,-8.699741l-9.456241,-19.290731l-15.886484,-18.534232l-20.80373,-14.373486l-31.772969,-15.129985l-16.642984,-1.891248" stroke-opacity="null" stroke-width="null" stroke="null" fill="#ffffff"/>
  <path id="svg_3" d="m101.71165,46.46357c13.78835,-23.76357 -55.22445,51.44195 -55.22445,51.44195c0,0 -32.15122,38.20321 -32.49196,37.8861c0.34074,0.31711 6.77099,38.14208 6.43024,37.82496c0.34075,0.31712 17.36198,23.0121 17.02123,22.69498c0.34075,0.31712 35.13972,29.44234 34.79897,29.12522c0.34075,0.31712 37.40921,14.31235 37.06846,13.99523c16.60549,-3.08712 99.82041,-83.27605 99.47965,-83.59316c0.34076,0.31711 -3.81999,-9.51738 -4.16074,-9.83449c0.34075,0.31711 -60.93569,-26.53861 -61.27644,-26.85573c0.34075,0.31712 -29.91922,-43.18159 -30.25997,-43.4987c0.34075,0.31711 -3.82,-35.23836 -4.16075,-35.55547" stroke-opacity="null" stroke-width="null" stroke="null" fill="#005fbf"/>
  <path id="svg_2" d="m127.100002,19.599996c-11.6,3.1 -13.5,4.7 -61.900001,52.800001c-25.5,25.4 -47.700001,48.200001 -49.300001,50.800001c-12.7,19.7 -9.5,42.700001 9.6,68.300001c7.5,10.2 28.7,31.5 38.500001,38.700001c24.5,18.2 44.100001,22.1 63.900001,12.6c5.9,-2.8 11.2,-7.8 50.900001,-47.200001c34.900001,-34.700001 44.200001,-43.500001 43.700001,-41.100001c-1.3,5.7 -4.7,11.5 -10.5,17.9c-6.6,7.3 -9.6,13.8 -8.6,18.9c1.5,8.1 14.5,17.5 22.7,16.4c5.2,-0.7 9.3,-4.5 11.4,-10.6c2.5,-7.2 3,-22.9 1.1,-34.600001c-3.4,-20.3 -3.6,-24 -2.1,-34.500001c3.1,-22.3 -3.6,-38.600001 -26.4,-64.500001c-14.7,-16.6 -33,-31.6 -46.800001,-38.500001c-13.3,-6.6 -25.2,-8.4 -36.200001,-5.4zm20.7,11.5c7.5,1.8 22.2,9.3 31.3,16c10.5,7.8 23.2,20.5 29.9,30.1c5.6,7.8 12,19.8 12,22.3c0,5.3 -16.6,7.4 -44.900001,5.7c-19.8,-1.2 -36.100001,-3.3 -40.300001,-5.2c-2.5,-1.2 -7.9,-9.1 -12.7,-18.7c-8.7,-17.5 -9.5,-36.800001 -1.8,-45.200001c5.1,-5.6 15.6,-7.6 26.5,-5zm-42.900001,30.7c1.5,14.1 5.2,24.7 12.5,35.700001c6.9,10.4 24.8,28.8 34.700001,35.800001c14,9.9 30.6,16.4 44.100001,17.4l7.6,0.6l-36.000001,35.600001c-23.3,23 -38.000001,36.900001 -41.800001,39.200001c-14.2,8.7 -30.8,7.4 -49.600001,-4.1c-20.1,-12.2 -41.700001,-35.800001 -49.800001,-54.400001c-2.8,-6.5 -3.1,-8 -3.1,-18.1c0,-17.4 -0.5,-16.7 43.400001,-61.000001c20.1,-20.4 36.700001,-37.000001 36.800001,-37.000001c0.1,0 0.7,4.6 1.2,10.3z"/>
 </g>
</svg>