<svg width="256" height="256" xmlns="http://www.w3.org/2000/svg" preserveAspectRatio="xMidYMid meet">

 <g>
  <title>background</title>
  <rect fill="none" id="canvas_background" height="402" width="582" y="-1" x="-1"/>
 </g>
 <g>
  <title>Layer 1</title>
  <path fill="#f7df6a" id="svg_2" d="m204.800003,8.999996c-3.6,1.1 -50.400001,46.900001 -118.200002,115.600002c-50.200001,50.800001 -53.600001,54.500001 -53.600001,57.800001c0,4.4 2.2,6.6 6.6,6.6c3.3,0 8.1,-4.6 81.800001,-78.800001c91.200001,-91.800001 94.800001,-95.500001 94.400001,-99.100001c-0.3,-2.3 -0.8,-2.6 -4.3,-2.8c-2.2,-0.1 -5.2,0.2 -6.7,0.7z"/>
  <path fill="#ffd800" id="svg_3" d="m226.700003,15.099996c-4.7,2.5 -55.500001,51.900001 -124.300002,121.100002c-49.500001,49.600001 -52.200001,52.500001 -53.300001,57.200001c-1.5,6.2 -0.1,11 3.9,13.1c3.5,1.8 8.5,1.9 12.2,0.2c2.9,-1.3 157.400002,-156.600002 167.700002,-168.600003c10.6,-12.3 11.9,-17.9 5.5,-23c-3.3,-2.6 -6.8,-2.6 -11.7,0z"/>
  <path fill="#e0bb02" id="svg_4" d="m154.900002,125.699998c-77.000001,76.800001 -87.000001,87.200001 -87.500001,90.400001c-0.5,3 -0.2,4.1 1.6,5.9c5.3,5.3 2.4,7.9 87.900001,-78.200001c43.300001,-43.600001 81.200001,-82.100001 84.300001,-85.500001c6,-6.6 7.9,-11.4 6.2,-16.2c-2.4,-6.7 -0.2,-8.7 -92.500001,83.600001z"/>
  <path stroke="null" id="svg_5" d="m25.26833,202.882588c-4.403792,10.1485 -9.997797,28.278967 -10.116819,33.410232l-0.238043,5.131264l6.546177,-0.228056c6.784219,-0.228056 24.280364,-4.675152 33.087948,-8.324051c4.998899,-2.166534 5.11792,-2.39459 4.403792,-5.929461c-2.261406,-9.806416 -12.140182,-21.209226 -22.971129,-26.454518c-3.332599,-1.596393 -6.546177,-2.96473 -7.141284,-2.96473c-0.595107,0 -2.261406,2.39459 -3.570642,5.35932z"/>
 </g>
</svg>