<svg width="256" height="256" xmlns="http://www.w3.org/2000/svg" preserveAspectRatio="xMidYMid meet">

 <g>
  <title>background</title>
  <rect fill="none" id="canvas_background" height="402" width="582" y="-1" x="-1"/>
 </g>
 <g>
  <title>Layer 1</title>
  <ellipse ry="8.510596" rx="12.293083" id="svg_8" cy="31.522938" cx="226.344668" stroke-opacity="null" stroke-width="null" stroke="null" fill="#a0a0a0"/>
  <path id="svg_6" d="m129.323871,50.24625l7.223914,18.595015l23.073171,27.233907l20.42543,18.534187l33.664135,7.186725l4.538985,-13.238705l6.051979,-24.964415l0.756497,-21.181928l-7.564974,-15.508197l-10.969213,-10.590964l-13.238705,-4.160736l-25.342664,0.756497l-21.938425,1.512995l-16.642943,9.456218" stroke-opacity="null" stroke-width="null" stroke="null" fill="#a0a0a0"/>
  <path id="svg_3" d="m122.515394,48.355006l-104.359455,104.079224l6.051979,31.772892l16.642943,18.912435l21.181928,19.668933l25.720912,11.347461l24.964415,-6.051979l90.77969,-90.401442l-4.160736,-15.886446l-21.560176,-6.430228l-13.238705,-12.103959l-18.912435,-20.047182l-20.42543,-34.420633" stroke-opacity="null" stroke-width="null" stroke="null" fill="#007fff"/>
  <path id="svg_2" d="m223,8.7c-0.8,0.3 -5.1,4.1 -9.6,8.5l-8.1,7.9l-6.4,-1.1c-3.5,-0.7 -13.1,-1.2 -21.4,-1.2c-20.1,0.1 -36.1,3 -49.4,8.8c-6.1,2.7 -8.3,4.8 -70.8,66.6c-35.8,35.4 -42.7,42.6 -45.3,47.8c-9.5,18.8 -1.6,39.3 26,67.1c29.4,29.6 53.4,38.4 72.6,26.7c6.1,-3.7 106,-101.2 110.6,-108c3.1,-4.6 7.2,-16.3 9.3,-26.8c2.3,-11.2 3,-34.1 1.6,-45l-1.3,-9.2l8.6,-8.8c9.5,-9.6 10.1,-11.2 6.7,-17.8c-2.3,-4.4 -10.3,-12.3 -14.8,-14.6c-3.2,-1.6 -5.6,-1.9 -8.3,-0.9zm6.4,17.8c1.7,1.6 2.6,3.4 2.6,5.5c0,3.8 -4.2,8 -8,8c-3.8,0 -8,-4.2 -8,-8c0,-3.8 4.2,-8 8,-8c1.5,0 3.9,1.1 5.4,2.5zm-34.9,11c10.6,2 17.3,5.8 20.2,11.5c5.2,10.2 6.8,31.9 3.8,49.6c-2.1,12 -4,15.6 -9,17.2c-10.8,3.6 -27.1,-2.7 -43,-16.6c-13,-11.3 -31.29972,-43.51244 -35.19972,-55.41244c-2.4,-7.5 -9.98249,-6.61723 -9.58249,3.98277c0.4,9.2 14.78221,35.82967 31.68221,52.72967c14,13.9 25,22.2 35.3,26.5c8.1,3.4 8.7,4 7.9,8.3c-0.6,3 -7.3,10 -43.7,45.9c-49.6,48.8 -50.2,49.3 -62.9,48.6c-13.3,-0.8 -25.2,-7.8 -42.5,-25.2c-16.9,-16.9 -23.7,-28.7 -23.8,-41.2c-0.1,-11.9 0,-12 54.2,-65.4c26.8,-26.5 50.7,-49.4 53.2,-51c13.7,-9.1 42.7,-13.5 63.4,-9.5z"/>
  <path id="svg_5" d="m217.07757,125.89599c-9.31774,-6.28387 -18.63548,-12.56774 -27.95322,-18.85161l27.95322,18.85161z" stroke-opacity="null" stroke-width="null" stroke="null" fill="#005fbf"/>
  <ellipse ry="0.945622" rx="1.134746" id="svg_7" cy="25.470959" cx="214.429833" stroke-opacity="null" stroke-width="null" stroke="null" fill="#a0a0a0"/>
 </g>
</svg>