<svg width="256" height="256" xmlns="http://www.w3.org/2000/svg" preserveAspectRatio="xMidYMid meet">

 <g>
  <title>background</title>
  <rect fill="none" id="canvas_background" height="402" width="582" y="-1" x="-1"/>
 </g>
 <g>
  <title>Layer 1</title>
  <rect stroke="#ffffff" transform="rotate(-44.247711181640625 140.25825500488278,115.53427124023439) " id="svg_3" height="53.752799" width="200.096331" y="88.657875" x="40.210088" stroke-width="0" fill="#005fbf"/>
  <path stroke-width="0" stroke="#ffffff" id="svg_2" d="m206.700003,10.499996c-4.9,1.8 -11.4,6.2 -20.7,14.1c-4.1,3.5 -13.2,10.8 -20.1,16.3c-27,21.4 -66.700001,58.900001 -98.500001,93.200001c-21.2,22.9 -24.2,26.8 -29.8,39.400001c-2.7,6.1 -7.4,15.9 -10.4,22c-8.3,16.6 -10.3,22.6 -8.8,25.6c1.1,2.2 0.9,2.8 -2.8,7.2c-8.1,9.6 -9.5,13.8 -5.6,17.7c3.9,3.9 9.8,1.9 19.2,-6.6c3.1,-2.7 4.1,-3.1 6.5,-2.5c3.7,1 5.5,0.4 28.8,-10.6c28.9,-13.5 27.8,-12.9 39.400001,-23.2c17.7,-15.8 80.600001,-79.300001 99.000001,-100.100001c34.500001,-38.800001 43.100001,-51.100001 43.100001,-61.800001c0,-5.1 -0.2,-5.4 -7.9,-14c-4.3,-4.8 -10.1,-10.8 -12.9,-13.5c-4.7,-4.3 -5.5,-4.7 -9.9,-4.6c-2.6,0 -6.5,0.7 -8.6,1.4zm0.5,33.900001c8.8,7.5 14.8,14.9 14.8,18.2c0,2.5 -9.5,13.3 -38.000001,43.200001c-9.1,9.5 -19,20.1 -22,23.4c-8.7,9.7 -73.100001,71.800001 -74.400001,71.800001c-0.6,0 -2.7,-2.5 -4.6,-5.6c-5.2,-8.6 -11.7,-15.3 -20.8,-21.1c-6.9,-4.5 -8.1,-5.6 -7.3,-7.1c1.3,-2.4 14.6,-16.7 38.500001,-41.500001c26,-27 71.900001,-70.000001 91.400001,-85.800001l7.3,-5.9l3.7,1.9c2,1.1 7.2,4.9 11.4,8.5z"/>
  <ellipse stroke="#000000" transform="rotate(45.128170013427734 18.220838546752887,238.1327362060547) " ry="12.414034" rx="6.907387" id="svg_4" cy="238.132735" cx="18.220839" stroke-width="2" fill="#edd83b"/>
 </g>
</svg>