<svg width="512" height="512" xmlns="http://www.w3.org/2000/svg">

  <g>
    <title>background</title>
    <rect fill="none" id="canvas_background" height="402" width="582" y="-1" x="-1"/>
  </g>
  <g>
    <title>Layer 1</title>
    <path fill="#fcda32" id="svg_9" d="m443.7,329.6c-0.1,0 -0.1,0 -0.2,0c-44.9,0 -81.4,-36.4 -81.4,-81.4s36.4,-81.4 81.4,-81.4c0.1,0 0.1,0 0.2,0c7.8,0 13,-8.2 9.3,-15.1c-34.7,-65 -103.4,-109.2 -182.3,-108.8c-113.3,0.6 -204.3,92 -204.3,205.3c0,113.4 91.9,205.3 205.3,205.3c78.5,0 146.6,-44 181.2,-108.7c3.7,-6.9 -1.3,-15.3 -9.2,-15.2zm-127.9,65c-16.2,0 -29.4,-13.2 -29.4,-29.4c0,-16.2 13.2,-29.4 29.4,-29.4s29.4,13.2 29.4,29.4c0,16.2 -13.2,29.4 -29.4,29.4z" class="st2"/>
    <path stroke="null" fill="#dbbc34" id="svg_11" d="m442.53269,330.37821c-0.1,0 -3.99598,5.55091 0.96731,-0.77821c-42.79029,3.37553 -80.13418,-32.60253 -80.13418,-77.60253s35.13418,-85.19747 80.13418,-85.19747c0.1,0 0.1,0 0.2,0c7.8,0 13,-8.2 9.3,-15.1c-34.7,-65 -103.4,-109.2 -182.3,-108.8c-4.3,0 -8.6,0.2 -12.9,0.5c72.5,4.9 134.7,47.5 167.2,108.3c3.7,6.9 -1.5,15.2 -9.3,15.1c-0.1,0 -0.1,-1.55642 -0.2,0c-44.9,0 -67.227,40.61941 -67.227,85.61941s22.227,77.18059 67.227,77.18059c0.1,0 -2.00971,6.32912 0.2,0c12.54135,8.86076 10.46835,20.53629 6.66835,27.53629c-32.5,60.8 -92.06835,91.06371 -164.56835,95.96371c4.6,0.3 9.2,0.5 13.9,0.5c78.5,0 146.6,-44 181.2,-108.7c3.7,-7 -2.46731,-14.62179 -10.36731,-14.52179z" class="st3"/>
    <path fill="#ffffff" id="svg_13" d="m86.7,248.2c0,-109.4 89.8,-198.5 197.7,-205c-4.5,-0.3 -9.1,-0.4 -13.7,-0.4c-113.3,0.6 -204.3,92 -204.3,205.3c0,113.4 91.9,205.3 205.3,205.3c4.3,0 8.5,-0.1 12.7,-0.4c-107.5,-6.4 -197.7,-95.6 -197.7,-204.8z" class="st4"/>
    <path fill="#d6d6be" id="svg_16" d="m271.7,461.67254c-39.8,0 -78.7,-11.1 -112.3,-32.2c-32.7,-20.5 -59.2,-49.6 -76.5,-84c-1.5,-3 -0.3,-6.6 2.7,-8.1c3,-1.5 6.6,-0.3 8.1,2.7c16.4,32.4 41.3,59.8 72.2,79.2c31.7,19.9 68.3,30.4 105.9,30.4c73.7,0 141.1,-40.4 175.9,-105.5c1.1,-2 0.3,-3.7 -0.1,-4.4c-0.4,-0.6 -1.5,-2.1 -3.8,-2.1l-0.2,0c-48.2,0 -84.55026,-39.2 -84.55026,-87.4c0,-3.3 0.62747,-20.50777 3.92747,-20.50777s5.22279,17.20777 5.22279,20.50777c0,41.6 33.8,75.4 75.4,75.4l0.2,0c5.8,0 11.1,3 14.1,7.9c3,5 3.1,11 0.4,16.2c-37,69 -108.5,111.9 -186.6,111.9zm44.1,-57.7c-20.3,0 -36.8,-16.5 -36.8,-36.8s16.5,-36.8 36.8,-36.8s36.8,16.5 36.8,36.8s-16.5,36.8 -36.8,36.8zm0,-61.6c-13.7,0 -24.8,11.1 -24.8,24.8s11.1,24.8 24.8,24.8s24.8,-11.1 24.8,-24.8s-11.1,-24.8 -24.8,-24.8zm-226.86425,13.76632c-4.2632,-9.5238 -11.33575,-21.86632 -12.23575,-24.16632c-4,-9.5 -7.2,-19.3 -9.8,-29.2c-0.8,-3.2 -6.2593,-29.0108 -3.0593,-29.8108c3.2,-0.8 13.8593,23.6108 14.6593,26.8108c2.4,9.4 11.97668,33.36684 15.67668,42.36684c1.3,3.1 -3.04974,-0.39482 -6.04974,0.80518c-0.7,0.4 5.07201,22.7181 0.80881,13.1943zm-19.13575,-62.36632c-1.1772,3.10881 -5.3,-2 -5.9,-4.9c-2.5,-12.9 -3.5,-24.1 -3.5,-38.6c0,-56.4 21.8,-109.4 61.4,-149.1c39.6,-39.8 92.5,-61.9 148.9,-62.2c0.4,0 0.7,0 1.1,0c78.2,0 149.6,42.8 186.5,112c2.7,5 2.6,11 -0.4,15.9c-3,5 -8.3,8 -14.2,8l-0.45907,0c-43.02642,-3.62694 -69.19948,25.80881 -78.29948,58.20881c-0.9,3.2 -0.83213,20.90311 -4.03213,20.00311c-3.2,-0.9 -2.50932,-23.11192 -1.60932,-26.31192c10.5,-37.6 45.1,-63.9 84.2,-63.9l0.2,0c1.6,0 3.1,-0.8 3.9,-2.2c0.4,-0.8 1.1,-2.3 0.1,-4.1c-34.8,-65.2 -102.2,-105.6 -176,-105.6c-0.3,0 -0.7,0 -1,0c-53.2,0.3 -103.1,21.1 -140.4,58.6c-37.3,37.5 -57.9,87.5 -57.9,140.7c0,13.8 1,24.3 3.3,36.4c0.6,3.3 4.97668,30.2342 -4.7,7c-9.67668,-23.2342 -0.0228,-3.00881 -1.2,0.1z"/>
    <ellipse stroke="null" fill="#e81010" id="svg_43" ry="37.403853" rx="26.785072" cy="367.468542" cx="333.709792" class="st10"/>
    <ellipse fill="#8820aa" id="svg_17" ry="42.1" rx="30.1" cy="146" cx="210.3" class="st6"/>
    <ellipse fill="#ffffff" id="svg_18" ry="42.1" rx="30.1" cy="146" cx="188" class="st4"/>
    <ellipse fill="#ae1df7" id="svg_19" transform="matrix(1.2141624078836613,-0.02009152,0.024399248150872917,0.9998,-43.81608780642247,3.9614) " ry="42.1" rx="24.4" cy="146" cx="195.7" class="st7"/>
    <ellipse fill="#3769a5" id="svg_21" ry="42.1" rx="30.1" cy="124.1" cx="330.7" class="st8"/>
    <ellipse fill="#ffffff" id="svg_22" ry="42.1" rx="30.1" cy="124.1" cx="308.3" class="st4"/>
    <ellipse stroke="null" fill="#2aa5fc" id="svg_23" ry="42.1" rx="29.372391" cy="124.1" cx="319.414928" class="st5"/>
    <ellipse fill="#e8a01b" id="svg_25" ry="42.1" rx="30.1" cy="256" cx="157" class="st9"/>
    <ellipse fill="#ffffff" id="svg_26" ry="42.1" rx="30.1" cy="256" cx="134.7" class="st4"/>
    <ellipse stroke="null" fill="#fbd20a" id="svg_27" ry="42.1" rx="28.543661" cy="256" cx="143.22873" class="st1"/>
    <ellipse fill="#cc3f18" id="svg_29" ry="42.1" rx="30.1" cy="358.352488" cx="209.4" class="st10"/>
    <ellipse fill="#ffffff" id="svg_30" ry="42.1" rx="30.1" cy="357.8" cx="187.1" class="st4"/>
    <ellipse stroke="null" fill="#f16723" id="svg_31" ry="42.1" rx="28.267418" cy="357.8" cx="196.457463" class="st0"/>
    <path id="svg_32" d="m198.3,194.1c-26.5,0 -48.1,-21.6 -48.1,-48.1s21.6,-48.1 48.1,-48.1s48.1,21.6 48.1,48.1s-21.6,48.1 -48.1,48.1zm0,-84.2c-19.9,0 -36.1,16.2 -36.1,36.1c0,19.9 16.2,36.1 36.1,36.1c19.9,0 36.1,-16.2 36.1,-36.1c0,-19.9 -16.2,-36.1 -36.1,-36.1z"/>
    <path id="svg_33" d="m319.5,172.2c-26.5,0 -48.1,-21.6 -48.1,-48.1s21.6,-48.1 48.1,-48.1s48.1,21.6 48.1,48.1s-21.6,48.1 -48.1,48.1zm0,-84.2c-19.9,0 -36.1,16.2 -36.1,36.1c0,19.9 16.2,36.1 36.1,36.1s36.1,-16.2 36.1,-36.1c0,-19.9 -16.2,-36.1 -36.1,-36.1z"/>
    <path id="svg_34" d="m145.8,304.1c-26.5,0 -48.1,-21.6 -48.1,-48.1s21.6,-48.1 48.1,-48.1s48.1,21.6 48.1,48.1s-21.6,48.1 -48.1,48.1zm0,-84.2c-19.9,0 -36.1,16.2 -36.1,36.1c0,19.9 16.2,36.1 36.1,36.1c19.9,0 36.1,-16.2 36.1,-36.1c0,-19.9 -16.2,-36.1 -36.1,-36.1z"/>
    <path id="svg_35" d="m198.3,405.9c-26.5,0 -48.1,-21.6 -48.1,-48.1s21.6,-48.1 48.1,-48.1s48.1,21.6 48.1,48.1s-21.6,48.1 -48.1,48.1zm0,-84.2c-19.9,0 -36.1,16.2 -36.1,36.1s16.2,36.1 36.1,36.1c19.9,0 36.1,-16.2 36.1,-36.1s-16.2,-36.1 -36.1,-36.1z"/>
    <ellipse stroke="null" fill="#ffffff" id="svg_41" ry="39.613803" rx="27.33756" cy="369.678493" cx="304.779952" class="st4"/>
    <ellipse stroke="null" fill="#ff1414" id="svg_42" ry="42.1" rx="25.228733" cy="366.639812" cx="314.413659" class="st0"/>
    <path id="svg_36" d="m317.637403,415.844785c-26.5,0 -48.1,-21.6 -48.1,-48.1s21.6,-48.1 48.1,-48.1s48.1,21.6 48.1,48.1s-21.6,48.1 -48.1,48.1zm0,-84.2c-19.9,0 -36.1,16.2 -36.1,36.1s16.2,36.1 36.1,36.1c19.9,0 36.1,-16.2 36.1,-36.1s-16.2,-36.1 -36.1,-36.1z"/>
  </g>
</svg>
